# xmcd CD database file generated by Grip 3.3.1
#
# Track frame offsets:
#       150
#       21109
#       40032
#       55231
#       74493
#       94840
#       113445
#       131375
#       143540
#       161446
#       177014
#       194947
#       215108
#       226497
#       239145
#
# Disc length: 3406 seconds
#
# Revision: 0
# Processed by: cddbd v1.5.2PL0 Copyright (c) Steve Scherf et al.
# Submitted via: Grip 3.3.1
#
DISCID=d60d4c0f
DTITLE=Unicante - Sommernachtskonzerte 2006
DYEAR=2006
DGENRE=A Capella
TTITLE0=Summer in the City
TTITLE1=Radio
TTITLE2=Phänomenal egal
TTITLE3=Only Time
TTITLE4=I Don't Like Mondays
TTITLE5=Ode to My Family
TTITLE6=My Immortal
TTITLE7=Punk Rock Song
TTITLE8=A Whole New Arabian Night
TTITLE9=A Girl Worth Fighting For
TTITLE10=Under the Sea
TTITLE11=My Funny Friend And Me
TTITLE12=You've Got a Friend in Me
TTITLE13=He Mele No Lilo
TTITLE14=Summer of '69
EXTD=
EXTT0=
EXTT1=
EXTT2=
EXTT3=
EXTT4=
EXTT5=
EXTT6=
EXTT7=
EXTT8=
EXTT9=
EXTT10=
EXTT11=
EXTT12=
EXTT13=
EXTT14=
PLAYORDER=
